<?xml version="1.0" encoding="utf-8"?>
<!-- Generator: Adobe Illustrator 24.0.1, SVG Export Plug-In . SVG Version: 6.00 Build 0)  -->
<svg version="1.1" id="Layer_1" xmlns="http://www.w3.org/2000/svg" xmlns:xlink="http://www.w3.org/1999/xlink" x="0px" y="0px"
	 viewBox="0 0 800 600" style="enable-background:new 0 0 800 600;" xml:space="preserve">
<style type="text/css">
	.st0{fill:#E1EEF7;}
	.st1{fill:none;stroke:#FF0000;stroke-width:2;stroke-miterlimit:10;}
	.st2{fill:#4683B4;}
	.st3{fill:none;stroke:#000000;stroke-width:2;stroke-miterlimit:10;}
	.st4{fill-rule:evenodd;clip-rule:evenodd;fill:#FF0000;}
	.st5{font-family:'Corbel';}
	.st6{font-size:35px;}
	.st7{fill:#FF0000;}
</style>
<g>
	<polygon class="st0" points="260.7,491.7 174.6,226.8 400,63 625.4,226.8 539.3,491.7 	"/>
	<line class="st1" x1="178" y1="228" x2="537" y2="488"/>
	<path class="st2" d="M400,67.3l221.3,160.8l-84.5,260.1H263.2l-84.5-260.1L400,67.3 M400,58.7L170.5,225.4l87.7,269.8h283.7
		l87.7-269.8L400,58.7L400,58.7z"/>
</g>
<path class="st3" d="M248.8,443.9c0.1,0,0.2,0,0.3,0"/>
<path class="st3" d="M249.1,443.9c3-0.6,6.2-0.9,9.4-0.9c25.9,0,47.2,19.9,49.3,45.2"/>
<circle class="st4" cx="400" cy="64" r="10"/>
<text transform="matrix(1 0 0 1 420.916 58.6992)" class="st5 st6">Vértice</text>
<text transform="matrix(1 0 0 1 140.895 542.3291)" class="st5 st6"> Ângulo interno</text>
<text transform="matrix(0.8165 0.5773 -0.5773 0.8165 317.3351 312.3819)" class="st7 st5 st6">Diagonal</text>
<text transform="matrix(1 0 0 1 605.0947 379.7798)" class="st5 st6">Lado</text>
</svg>
