<?xml version="1.0" encoding="utf-8"?>
<!-- Generator: Adobe Illustrator 24.0.1, SVG Export Plug-In . SVG Version: 6.00 Build 0)  -->
<svg version="1.1" id="Layer_1" xmlns="http://www.w3.org/2000/svg" xmlns:xlink="http://www.w3.org/1999/xlink" x="0px" y="0px"
	 viewBox="0 0 600 600" style="enable-background:new 0 0 600 600;" xml:space="preserve">
<style type="text/css">
	.st0{fill:#E1EEF7;}
	.st1{fill:#4683B4;}
	.st2{fill:none;stroke:#000000;stroke-width:2.5;stroke-miterlimit:10;}
</style>
<g>
	<polygon class="st0" points="202,536.5 63.5,398 63.5,202 202,63.5 398,63.5 536.5,202 536.5,398 398,536.5 	"/>
	<path class="st1" d="M396.5,67L533,203.5v193.1L396.5,533h-193L67,396.5v-193L203.5,67H396.5 M399.4,60H200.6L60,200.6v198.8
		L200.6,540h198.8L540,399.4V200.6L399.4,60L399.4,60z"/>
</g>
<path class="st2" d="M240.6,533c-1.8-19.1-17.8-34-37.3-34c-9.4,0-18,3.5-24.6,9.2"/>
<path class="st2" d="M421.8,507.7c-6.5-5.4-14.9-8.7-24-8.7c-19.5,0-35.6,14.9-37.3,34"/>
<path class="st2" d="M533,359.4c-19.1,1.8-34,17.8-34,37.3c0,9.4,3.5,18,9.2,24.6"/>
<path class="st2" d="M507.4,177.9c-5.3,6.5-8.4,14.7-8.4,23.7c0,19.5,14.9,35.6,34,37.3"/>
<path class="st2" d="M359.9,67c1.8,19.1,17.8,34,37.3,34c9.3,0,17.8-3.4,24.3-9"/>
<path class="st2" d="M177.9,92.4c6.5,5.3,14.8,8.6,23.9,8.6c19.5,0,35.6-14.9,37.3-34"/>
<path class="st2" d="M67,239.1c19.1-1.8,34-17.8,34-37.3c0-9-3.2-17.3-8.5-23.8"/>
<path class="st2" d="M92.3,421.8c5.4-6.5,8.7-14.9,8.7-24c0-19.5-14.9-35.6-34-37.3"/>
</svg>
