<?xml version="1.0" encoding="utf-8"?>
<!-- Generator: Adobe Illustrator 24.0.1, SVG Export Plug-In . SVG Version: 6.00 Build 0)  -->
<svg version="1.1" id="Layer_1" xmlns="http://www.w3.org/2000/svg" xmlns:xlink="http://www.w3.org/1999/xlink" x="0px" y="0px"
	 viewBox="0 0 509.3 613.8" style="enable-background:new 0 0 509.3 613.8;" xml:space="preserve">
<style type="text/css">
	.st0{fill:#E1EEF7;}
	.st1{fill:#4683B4;}
	.st2{fill:none;stroke:#FF0000;stroke-width:5;stroke-miterlimit:10;}
	.st3{font-family:'ArialMT';}
	.st4{font-size:32px;}
	.st5{letter-spacing:-1;}
	.st6{fill:none;stroke:#FF0000;stroke-miterlimit:10;}
	.st7{fill:#FF0000;}
	.st8{font-size:22px;}
</style>
<title>circulo2</title>
<circle class="st0" cx="257.8" cy="253.3" r="3"/>
<path class="st0" d="M351.6,587.9C442.7,549.3,501.9,460,502,361v-0.2H10.4c0.1,32.3,6.5,64.2,18.9,93.9
	C81.5,580.5,225.8,640.1,351.6,587.9z"/>
<path class="st0" d="M255.8,7.3c-33-0.1-65.6,6.5-96,19.4C66.4,66.8,10.4,158,10.5,253.8h491.6C502.1,117.7,391.9,7.4,255.8,7.3z"/>
<path class="st1" d="M505.2,360.8c0,138.1-111.9,250-250,250c0,0,0,0,0,0C393.2,610.8,505.2,498.9,505.2,360.8L505.2,360.8h-3.6
	l0,0.2c-0.1,99-59.3,188.3-150.4,226.9c-125.8,52.2-270.1-7.4-322.2-133.2C16.5,425,10.1,393,10,360.8H5.2h0H1.7
	c0,140,113.5,253.5,253.5,253.5s253.5-113.5,253.5-253.5H505.2z"/>
<path class="st1" d="M255.8,0.3C115.8,0.3,2.3,113.8,2.3,253.8h3.5h4.8C10.4,158,66.4,66.8,159.8,26.7c30.4-12.8,63-19.4,96-19.4
	c136.1,0.1,246.4,110.4,246.4,246.5h3.6h0h3.5C509.3,113.8,395.8,0.3,255.8,0.3z M7,229.1c1-10.2,2.7-20.3,4.9-30.3
	C9.6,208.7,8,218.9,7,229.1z M29.7,147c-1.7,3.7-3.4,7.4-4.9,11.2c-3.9,9.4-7.2,19-9.9,28.8c2.7-9.8,6-19.4,9.9-28.8
	C26.3,154.4,28,150.6,29.7,147c2.6-5.5,5.4-10.9,8.4-16.3C35.1,136,32.3,141.5,29.7,147z M44.4,120.2c4.4-6.9,9.1-13.6,14.1-20.1
	C53.5,106.6,48.8,113.3,44.4,120.2z"/>
<line class="st2" x1="2.3" y1="253.3" x2="509.3" y2="253.3"/>
<line class="st2" x1="2" y1="359.3" x2="509" y2="359.3"/>
<path class="st1" d="M257.8,246.8c-3.6,0-6.5,2.9-6.5,6.5c0,3.6,2.9,6.5,6.5,6.5s6.5-2.9,6.5-6.5l0,0l0,0
	C264.3,249.8,261.3,246.8,257.8,246.8z"/>
<text transform="matrix(1 0 0 1 257.77 285.42)" class="st1 st3 st4 st5">O</text>
<line class="st6" x1="0.5" y1="339.8" x2="507.5" y2="339.8"/>
<line class="st6" x1="0.5" y1="332.9" x2="0.5" y2="345.8"/>
<line class="st6" x1="507.5" y1="333.3" x2="507.5" y2="346.2"/>
<text transform="matrix(1 0 0 1 5.76 333.32)" class="st7 st3 st8">Diâmetro</text>
</svg>
