<?xml version="1.0" encoding="utf-8"?>
<!-- Generator: Adobe Illustrator 24.0.1, SVG Export Plug-In . SVG Version: 6.00 Build 0)  -->
<svg version="1.1" id="Layer_1" xmlns="http://www.w3.org/2000/svg" xmlns:xlink="http://www.w3.org/1999/xlink" x="0px" y="0px"
	 viewBox="0 0 507 507" style="enable-background:new 0 0 507 507;" xml:space="preserve">
<style type="text/css">
	.st0{fill:#E1EEF7;}
	.st1{fill:#4683B4;}
	.st2{font-family:'ArialMT';}
	.st3{font-size:32px;}
	.st4{letter-spacing:-1;}
</style>
<title>circulo1</title>
<path class="st0" d="M253.5,503.5c-138.1,0-250-111.9-250-250c0-66.3,26.3-129.9,73.2-176.8c97.6-97.6,255.9-97.6,353.6,0
	s97.6,255.9,0,353.6C383.5,477.3,319.8,503.7,253.5,503.5z"/>
<path class="st1" d="M253.5,7C389.7,7.1,500,117.6,499.9,253.7c-0.1,99-59.3,188.3-150.4,226.9c-125.8,52.2-270.1-7.4-322.3-133.2
	C-24.6,222.8,33.5,79.7,157.5,26.4C187.9,13.5,220.5,6.9,253.5,7 M253.5,0C113.5,0,0,113.5,0,253.5S113.5,507,253.5,507
	S507,393.5,507,253.5S393.5,0,253.5,0z"/>
<circle class="st0" cx="255.5" cy="253.5" r="3"/>
<path class="st1" d="M255.5,247c-3.6,0-6.5,2.9-6.5,6.5s2.9,6.5,6.5,6.5s6.5-2.9,6.5-6.5l0,0C262,249.9,259.1,247,255.5,247z"/>
<text transform="matrix(1 0 0 1 243.0966 293.1299)" class="st1 st2 st3 st4">O</text>
</svg>
